<?xml version="1.0" encoding="utf-8"?>
<!-- Generator: Adobe Illustrator 17.1.0, SVG Export Plug-In . SVG Version: 6.00 Build 0)  -->
<!DOCTYPE svg PUBLIC "-//W3C//DTD SVG 1.1//EN" "http://www.w3.org/Graphics/SVG/1.1/DTD/svg11.dtd">
<svg version="1.1" id="Layer_1" xmlns="http://www.w3.org/2000/svg" xmlns:xlink="http://www.w3.org/1999/xlink" x="0px" y="0px"
	 viewBox="0 0 148 54.133" enable-background="new 0 0 148 54.133" xml:space="preserve">
<g>
	<g>
		<g>
			<g>
				<path fill="#666666" d="M2.99,0.22C1.341,0.22,0,1.557,0,3.201v25.831c0,1.643,1.341,2.98,2.99,2.98
					c1.649,0,2.99-1.337,2.99-2.98v-6.044l4.003-4.065l9.195,12.005c0.586,0.692,1.402,1.085,2.244,1.085
					c0.733,0,1.391-0.242,1.902-0.699c0.63-0.498,1.038-1.246,1.112-2.045c0.073-0.789-0.167-1.544-0.675-2.125l-9.535-12.456
					l9.411-9.335c1.139-1.19,1.135-3.081-0.006-4.219c-0.576-0.574-1.328-0.89-2.119-0.89c-0.791,0-1.544,0.316-2.12,0.891
					L5.98,14.538V3.201C5.98,1.557,4.639,0.22,2.99,0.22L2.99,0.22z"/>
			</g>
		</g>
		<g>
			<g>
				<path fill="#666666" d="M63.413,0H48.924c-1.677,0-2.99,1.309-2.99,2.98v26.051c0,1.643,1.341,2.98,2.99,2.98h14.488
					c1.622,0,2.992-1.365,2.992-2.98c0-1.64-1.37-3.025-2.992-3.025H51.959v-7.02h9.77c1.649,0,2.99-1.357,2.99-3.025
					c0-1.615-1.369-2.98-2.99-2.98h-9.77V6.005h11.453c1.622,0,2.992-1.385,2.992-3.025C66.404,1.365,65.034,0,63.413,0L63.413,0z"
					/>
			</g>
		</g>
		<g>
			<g>
				<path fill="#666666" d="M103.942,0H89.454c-1.677,0-2.99,1.309-2.99,2.98v26.051c0,1.643,1.341,2.98,2.99,2.98h14.488
					c1.622,0,2.992-1.365,2.992-2.98c0-1.64-1.37-3.025-2.992-3.025H92.489v-7.02h9.77c1.649,0,2.99-1.357,2.99-3.025
					c0-1.615-1.369-2.98-2.99-2.98h-9.77V6.005h11.453c1.622,0,2.992-1.385,2.992-3.025C106.935,1.365,105.564,0,103.942,0
					L103.942,0z"/>
			</g>
		</g>
		<g>
			<g>
				<path fill="#666666" d="M137.915,0h-7.932c-1.649,0-2.991,1.337-2.991,2.98v26.051c0,1.616,1.37,2.98,2.991,2.98
					c1.673,0,3.035-1.337,3.035-2.98v-9.029h4.897c5.558,0,10.079-4.467,10.079-9.958C147.994,4.506,143.472,0,137.915,0L137.915,0z
					 M133.018,6.005h4.897c2.234,0,4.015,1.772,4.054,4.034c-0.039,2.217-1.82,3.957-4.054,3.957h-4.897V6.005L133.018,6.005z"/>
			</g>
		</g>
	</g>
	<path fill="#666666" d="M144.464,54.133H3.685c-1.953,0-3.536-1.583-3.536-3.536v-0.071c0-1.953,1.583-3.536,3.536-3.536h140.779
		c1.953,0,3.536,1.583,3.536,3.536v0.071C148,52.55,146.417,54.133,144.464,54.133z"/>
</g>
</svg>
